<svg xmlns="http://www.w3.org/2000/svg" xmlns:xlink="http://www.w3.org/1999/xlink" width="146" height="26" viewBox="0 0 146 26">
  <defs>
    <clipPath id="clip-path">
      <path id="Path_5141" data-name="Path 5141" d="M5131.946-1748.278h143.819v-24.564H5131.946Z"/>
    </clipPath>
    <clipPath id="clip-android_tv">
      <rect width="146" height="26"/>
    </clipPath>
  </defs>
  <g id="android_tv" data-name="android tv" clip-path="url(#clip-android_tv)">
    <g id="Android_TV-Logo.wine" transform="translate(-5130.946 1772.842)" clip-path="url(#clip-path)">
      <path id="Path_5139" data-name="Path 5139" d="M5141.257-1752.508a4.961,4.961,0,0,1-4.878-5.056,4.978,4.978,0,0,1,4.878-5.036,4.792,4.792,0,0,1,4.346,2.359.931.931,0,0,1,.123.426v4.469a.93.93,0,0,1-.089.337,4.985,4.985,0,0,1-4.38,2.5m8.851,3.848v-17.735h-4.382v1.489a6.867,6.867,0,0,0-4.948-1.842,8.9,8.9,0,0,0-8.832,9.185,8.955,8.955,0,0,0,8.832,9.26,6.89,6.89,0,0,0,4.948-1.881v1.525Zm19.029,0v-9.594a8.363,8.363,0,0,0-8.353-8.495,8.353,8.353,0,0,0-8.353,8.495v9.594h4.38v-9.594a3.912,3.912,0,0,1,3.973-4.1,3.922,3.922,0,0,1,3.973,4.1v9.594Zm11.138-3.848a4.961,4.961,0,0,1-4.877-5.056,4.978,4.978,0,0,1,4.877-5.036,5,5,0,0,1,4.346,2.359.931.931,0,0,1,.123.426v4.488a.864.864,0,0,1-.086.318,4.991,4.991,0,0,1-4.382,2.5m8.851,3.848v-23.055h-4.382v6.809a6.9,6.9,0,0,0-4.948-1.9,8.951,8.951,0,0,0-8.831,9.24,8.954,8.954,0,0,0,8.831,9.26,6.885,6.885,0,0,0,4.948-1.881v1.525Zm6.7,0v-9.471c0-2.8,1.472-4.291,4.273-4.291v-4.327c-5.64,0-8.653,3-8.653,8.618v9.471Zm13.851-4.06a4.833,4.833,0,0,1-4.822-4.844,4.827,4.827,0,0,1,4.822-4.822,4.822,4.822,0,0,1,4.844,4.822,4.828,4.828,0,0,1-4.844,4.844m0,4.416a9.257,9.257,0,0,0,9.277-9.26,9.207,9.207,0,0,0-9.277-9.185,9.2,9.2,0,0,0-9.257,9.185,9.254,9.254,0,0,0,9.257,9.26m13.462-19.438a2.552,2.552,0,0,0,2.537-2.554,2.54,2.54,0,0,0-2.537-2.554,2.54,2.54,0,0,0-2.535,2.554,2.552,2.552,0,0,0,2.535,2.554m2.181,1.347h-4.382v17.735h4.382Zm11.3,13.887a4.961,4.961,0,0,1-4.878-5.056,4.978,4.978,0,0,1,4.878-5.036,5,5,0,0,1,4.344,2.359.9.9,0,0,1,.125.426v4.5a.736.736,0,0,1-.089.3,4.984,4.984,0,0,1-4.38,2.5m8.849,3.848v-23.055h-4.38v6.809a6.864,6.864,0,0,0-4.947-1.842,8.9,8.9,0,0,0-8.834,9.185,8.971,8.971,0,0,0,8.834,9.277,6.9,6.9,0,0,0,4.947-1.9v1.525Z" transform="translate(0 0.006)" fill="#77c159"/>
      <path id="Path_5140" data-name="Path 5140" d="M5554.442-1744.628l7.2-17.755h-3.618l-5.89,15.4h1.224l-5.9-15.376h-3.725l7.2,17.735Zm-11.581.212.017-3.156h-.39c-2.571,0-4.382-1.544-4.382-4.151v-7.713h4.629v-2.927h-4.629v-4.808H5534.9v15.448c0,4.594,2.98,7.307,7.59,7.307Z" transform="translate(-285.878 -4.023)" fill="#868686"/>
    </g>
  </g>
</svg>
