<svg xmlns="http://www.w3.org/2000/svg" xmlns:xlink="http://www.w3.org/1999/xlink" width="155" height="33" viewBox="0 0 155 33">
  <defs>
    <clipPath id="clip-chromecast">
      <rect width="155" height="33"/>
    </clipPath>
  </defs>
  <g id="chromecast" clip-path="url(#clip-chromecast)">
    <path id="chromecast-logo-svg-vector" d="M39.257,15.82a5.6,5.6,0,0,1,5.664-5.859,4.99,4.99,0,0,1,4.786,3.125l-1.856.879a3.086,3.086,0,0,0-3.027-2.051c-1.757,0-3.418,1.562-3.418,4a3.749,3.749,0,0,0,3.418,4,3.347,3.347,0,0,0,3.223-2.051l1.856.781A5.13,5.13,0,0,1,45.02,21.78,5.759,5.759,0,0,1,39.257,15.82Zm14.161-5.469-.1,1.562h.1a4.219,4.219,0,0,1,3.515-1.856c2.832,0,4.2,1.856,4.2,4.589v6.738H59.081V14.942c0-2.245-1.171-3.027-2.734-3.027a3.189,3.189,0,0,0-2.93,3.418v6.055H51.367V5.37h2.051Zm9.863,11.036V10.351h1.952v1.757h.1a3.65,3.65,0,0,1,3.223-2.051,3.726,3.726,0,0,1,1.562.293L69.336,12.3a3.492,3.492,0,0,0-1.074-.195,3,3,0,0,0-2.832,3.223v6.055ZM81.444,15.82a5.667,5.667,0,1,1-11.327,0,5.667,5.667,0,1,1,11.327,0Zm-2.051,0a3.632,3.632,0,1,0-7.226,0,3.632,3.632,0,1,0,7.226,0ZM83.1,10.351h1.952v1.562h.1a4.072,4.072,0,0,1,3.418-1.856,3.507,3.507,0,0,1,3.515,2.149A4.432,4.432,0,0,1,95.9,10.058c2.637,0,3.906,1.856,3.906,4.589v6.738H97.654V14.942c0-2.245-.879-3.027-2.442-3.027-1.661,0-2.832,1.661-2.832,3.418v6.055H90.329V14.942c0-2.245-.879-3.027-2.442-3.027-1.661,0-2.832,1.661-2.832,3.418v6.055H83.005V10.353h.1Zm18.164,5.469c0-3.125,2.149-5.859,5.37-5.859s5.37,2.344,5.37,5.859v.39h-8.692a3.516,3.516,0,0,0,3.515,3.613,3.125,3.125,0,0,0,3.027-1.856l1.856.781a5.018,5.018,0,0,1-4.786,3.027,5.672,5.672,0,0,1-5.661-5.955Zm5.37-3.906a3.223,3.223,0,0,0-3.125,2.637h6.348A2.985,2.985,0,0,0,106.639,11.914Zm6.543,3.906a5.6,5.6,0,0,1,5.664-5.859,4.99,4.99,0,0,1,4.786,3.125l-1.856.781a3.086,3.086,0,0,0-3.027-2.051c-1.757,0-3.418,1.562-3.418,4a3.749,3.749,0,0,0,3.418,4,3.347,3.347,0,0,0,3.223-2.051l1.856.781a5.13,5.13,0,0,1-4.882,3.125,5.621,5.621,0,0,1-5.763-5.862ZM124.9,18.067c0-2.442,2.245-3.808,4.786-3.808a5.475,5.475,0,0,1,2.93.683V14.55a2.67,2.67,0,0,0-2.832-2.637,2.759,2.759,0,0,0-2.637,1.562l-1.856-.781a4.548,4.548,0,0,1,4.493-2.637c2.637,0,4.882,1.562,4.882,4.687v6.64h-1.952V19.823h-.1A4.228,4.228,0,0,1,129,21.678c-2.247,0-4.1-1.366-4.1-3.612Zm7.716-1.466a4.509,4.509,0,0,0-2.637-.683c-2.149,0-3.027,1.171-3.027,2.149,0,1.171,1.171,1.757,2.245,1.757A3.358,3.358,0,0,0,132.616,16.6Zm3.32,1.954,1.856-.781a3.1,3.1,0,0,0,2.93,2.051c1.269,0,2.149-.586,2.149-1.562,0-.586-.293-1.171-1.464-1.464l-2.245-.488c-.976-.293-2.93-1.074-2.93-3.027s2.051-3.223,4.3-3.223a4.34,4.34,0,0,1,4.2,2.539l-1.757.781a2.488,2.488,0,0,0-2.539-1.464c-1.171,0-2.149.488-2.149,1.368,0,.683.586,1.074,1.464,1.269l2.149.488c2.149.488,3.027,1.856,3.027,3.223,0,1.952-1.757,3.418-4.3,3.418a4.853,4.853,0,0,1-4.689-3.127Zm11.719-.586V12.207H145.7V10.351h1.952V7.031h2.051v3.32h2.637v1.856h-2.637v5.567c0,1.269.488,1.757,1.464,1.757a1.607,1.607,0,0,0,.976-.195l.683,1.757a4.214,4.214,0,0,1-1.661.293c-2.244.1-3.513-1.173-3.513-3.418ZM29.589,9.473H19.043a7.106,7.106,0,0,1,3.32,5.957,8.631,8.631,0,0,1-.195,1.562v.1a5.705,5.705,0,0,1-.781,2.149l-6.64,11.62h.586a15.4,15.4,0,0,0,15.43-15.43A14.762,14.762,0,0,0,29.589,9.473ZM15.43,22.363a7.327,7.327,0,0,1-5.077-2.149,9.8,9.8,0,0,1-1.269-1.562l-.195-.195L2.344,7.226A15.5,15.5,0,0,0,0,15.43,15.246,15.246,0,0,0,13.476,30.663l5.274-9.18a6.491,6.491,0,0,1-3.32.879ZM15.43,0a15.4,15.4,0,0,0-12.4,6.25L8.3,15.233a.584.584,0,0,1,.1.39V15.33a6.936,6.936,0,0,1,5.762-6.836h.1A5.415,5.415,0,0,1,16.018,8.3H29.006A15.42,15.42,0,0,0,15.43,0ZM21,15.43a5.567,5.567,0,1,1-11.134,0A5.629,5.629,0,0,1,15.43,9.863,5.5,5.5,0,0,1,21,15.43Z" transform="translate(1.185 0.87)" fill="#7a7a7e"/>
  </g>
</svg>
