<svg xmlns="http://www.w3.org/2000/svg" xmlns:xlink="http://www.w3.org/1999/xlink" width="46" height="25" viewBox="0 0 46 25">
  <defs>
    <clipPath id="clip-fire_tv">
      <rect width="46" height="25"/>
    </clipPath>
  </defs>
  <g id="fire_tv" data-name="fire tv" clip-path="url(#clip-fire_tv)">
    <g id="Layer_2" transform="translate(-0.99 -11.64)">
      <g id="Group_2522" data-name="Group 2522">
        <path id="Path_5142" data-name="Path 5142" d="M21.46,36.31l-.62-.06c-.4-.04-.79-.09-1.19-.15-.75-.11-1.49-.25-2.23-.43a26.333,26.333,0,0,1-5.22-1.84,25.96,25.96,0,0,1-3.33-1.89,26.736,26.736,0,0,1-2.98-2.32.6.6,0,0,1-.16-.23.3.3,0,0,1,.31-.4.512.512,0,0,1,.27.09c.35.21.71.4,1.07.6a34.817,34.817,0,0,0,4.86,2.11,36.908,36.908,0,0,0,4.11,1.16c.71.16,1.43.29,2.14.4.54.08,1.08.16,1.62.22.45.05.91.09,1.36.13.51.04,1.02.07,1.53.08.59.02,1.18.02,1.77.01.43-.01.85-.03,1.27-.05.44-.03.88-.06,1.32-.1s.86-.09,1.29-.15c.58-.08,1.16-.17,1.73-.28a32.892,32.892,0,0,0,3.23-.76,36.3,36.3,0,0,0,4.03-1.41.772.772,0,0,1,.42-.08.55.55,0,0,1,.33.14.476.476,0,0,1,.1.61.816.816,0,0,1-.24.25,19.483,19.483,0,0,1-2.42,1.5,25.4,25.4,0,0,1-5.66,2.12q-1.155.285-2.34.48c-.65.1-1.3.19-1.95.24a.587.587,0,0,0-.23.04H21.67A.361.361,0,0,0,21.46,36.31Z" fill="#f05023"/>
        <path id="Path_5143" data-name="Path 5143" d="M6.31,11.68a6.484,6.484,0,0,1,1.07.19.417.417,0,0,1,.34.41c.01.23.01.47.01.7,0,.03-.01.05-.01.08a.251.251,0,0,1-.26.22,2.843,2.843,0,0,1-.5-.06,3.589,3.589,0,0,0-1.46.03.98.98,0,0,0-.76.81,2.607,2.607,0,0,0-.05.48v1.71c0,.05.02.06.06.06H7.2a.554.554,0,0,1,.18.02.276.276,0,0,1,.23.24.528.528,0,0,1,.01.13v.71a.66.66,0,0,1-.01.14.288.288,0,0,1-.23.23.615.615,0,0,1-.19.02H4.76c-.06-.01-.08.02-.08.08v7.6a1.087,1.087,0,0,1-.01.18.323.323,0,0,1-.24.25.97.97,0,0,1-.17.01H3.22c-.31,0-.42-.12-.42-.42V17.95c0-.15,0-.15-.15-.15H1.44a.757.757,0,0,1-.15-.01.3.3,0,0,1-.26-.22.161.161,0,0,0-.04-.07v-.67q.03-.015.03-.03c.04-.18.18-.24.34-.27s.33-.05.5-.07c.28-.04.57-.08.86-.11.07-.01.08-.03.08-.09v-.09c0-.54-.01-1.09.01-1.63a4.134,4.134,0,0,1,.17-1.1,2.359,2.359,0,0,1,.79-1.21,2.843,2.843,0,0,1,1.37-.55c.12-.02.24-.01.35-.04h.58A.28.28,0,0,0,6.31,11.68Z" fill="#f05123"/>
        <path id="Path_5144" data-name="Path 5144" d="M47.01,16.63c-.2.62-.46,1.21-.69,1.81q-1.4,3.525-2.8,7.06c-.04.09-.08.18-.12.26a.37.37,0,0,1-.25.17.974.974,0,0,1-.24.02h-.99a1.108,1.108,0,0,1-.19-.02.4.4,0,0,1-.32-.22,2.706,2.706,0,0,1-.17-.39c-.75-1.87-1.49-3.73-2.23-5.6-.35-.88-.7-1.76-1.05-2.65l-.12-.3a.445.445,0,0,1-.03-.23.2.2,0,0,1,.16-.2.59.59,0,0,1,.14-.02h1.13a1.785,1.785,0,0,1,.23.02.341.341,0,0,1,.25.17,2.518,2.518,0,0,1,.15.34c.55,1.57,1.1,3.13,1.65,4.7.29.83.58,1.66.88,2.49.02.04.02.09.06.13a.2.2,0,0,0,.04-.08c.55-1.57,1.11-3.15,1.66-4.72.3-.84.59-1.69.89-2.53a2.712,2.712,0,0,1,.13-.3.374.374,0,0,1,.3-.21,2.275,2.275,0,0,1,.26-.02h.99c.18,0,.24.04.3.2A.323.323,0,0,0,47.01,16.63Z" fill="#f05123"/>
        <path id="Path_5145" data-name="Path 5145" d="M21.46,36.31a.373.373,0,0,1,.21.03h-.21C21.47,36.33,21.46,36.32,21.46,36.31Z" fill="#f9a987"/>
        <path id="Path_5146" data-name="Path 5146" d="M6.31,11.68a.523.523,0,0,1-.25-.02h.25Z" fill="#f8a17c"/>
        <path id="Path_5147" data-name="Path 5147" d="M24.26,21.55H21.37c-.14,0-.14,0-.13.13a4.476,4.476,0,0,0,.27,1.44,2.3,2.3,0,0,0,1.54,1.42,4.325,4.325,0,0,0,1.29.18,7.38,7.38,0,0,0,2.42-.38,2.619,2.619,0,0,1,.4-.11c.18-.02.27.04.3.23,0,.02.01.05.01.07,0,.24.01.48-.01.72a.4.4,0,0,1-.2.32,2.658,2.658,0,0,1-.6.26,7.133,7.133,0,0,1-1.44.32,7.637,7.637,0,0,1-1.51.06,5.33,5.33,0,0,1-1.84-.4,3.653,3.653,0,0,1-1.96-1.96,5.441,5.441,0,0,1-.41-1.52,9.745,9.745,0,0,1-.08-1.32,6.859,6.859,0,0,1,.31-2.06,4.119,4.119,0,0,1,1.56-2.17,3.969,3.969,0,0,1,1.58-.64,6.094,6.094,0,0,1,1.65-.07,3.767,3.767,0,0,1,1.63.52,3.109,3.109,0,0,1,1.29,1.67,5.078,5.078,0,0,1,.24,1.28,8.478,8.478,0,0,1-.08,1.59c-.01.06-.03.11-.04.17a.309.309,0,0,1-.29.24h-.15C26.16,21.55,25.21,21.55,24.26,21.55Zm-.67-1.26h2.27c.1,0,.1,0,.1-.1v-.51a2.856,2.856,0,0,0-.1-.77,1.74,1.74,0,0,0-1.32-1.35,3.066,3.066,0,0,0-1.28-.03,2.148,2.148,0,0,0-1.57,1.07,3.293,3.293,0,0,0-.38,1.09c-.03.17-.05.35-.07.52-.01.08,0,.08.08.08h2.27Z" fill="#f05123"/>
        <path id="Path_5148" data-name="Path 5148" d="M33.91,20.69v2.6a1.959,1.959,0,0,0,.05.48.87.87,0,0,0,.73.72,3.414,3.414,0,0,0,1.01.04,6.331,6.331,0,0,0,.74-.12.97.97,0,0,1,.17-.01.206.206,0,0,1,.21.18.277.277,0,0,1,.01.09,6.768,6.768,0,0,1-.01.78.425.425,0,0,1-.27.36,3.04,3.04,0,0,1-.57.16,6.738,6.738,0,0,1-1.27.11,3.655,3.655,0,0,1-1.14-.16,2.077,2.077,0,0,1-1.42-1.53,3.806,3.806,0,0,1-.12-.95V17.98c0-.17.03-.15-.14-.15H30.72c-.31,0-.43-.12-.43-.42V17c0-.05.01-.09.01-.14a.3.3,0,0,1,.23-.26,2.048,2.048,0,0,1,.42-.07c.35-.05.71-.09,1.06-.13a.1.1,0,0,0,.1-.1l.18-1.71c.02-.18.04-.36.05-.54a1.046,1.046,0,0,1,.04-.17.287.287,0,0,1,.25-.21,5.905,5.905,0,0,1,1.03,0,.265.265,0,0,1,.24.23.985.985,0,0,1,.02.17v2.15c0,.14-.02.12.12.12h2.29a.86.86,0,0,1,.16.01.3.3,0,0,1,.26.3v.84a.311.311,0,0,1-.29.33.66.66,0,0,1-.14.01H34.01c-.12,0-.11-.01-.11.11V19.5C33.91,19.9,33.91,20.3,33.91,20.69Z" fill="#f05123"/>
        <path id="Path_5149" data-name="Path 5149" d="M15.36,17.74l.15-.15a5.19,5.19,0,0,1,1.13-.91,3.247,3.247,0,0,1,1.58-.42,4.7,4.7,0,0,1,.53.02.32.32,0,0,1,.33.35v1c0,.04-.01.08-.01.11a.278.278,0,0,1-.26.24,1.292,1.292,0,0,1-.34-.01,4.217,4.217,0,0,0-1.86.21,3.71,3.71,0,0,0-1.03.57.273.273,0,0,0-.12.24v6.46a1.21,1.21,0,0,1-.01.19.288.288,0,0,1-.24.27.875.875,0,0,1-.16.02H13.89a.319.319,0,0,1-.31-.34v-8.9a.33.33,0,0,1,.36-.37c.3-.01.59-.01.89,0a.359.359,0,0,1,.4.34c.04.21.06.43.09.65A3.126,3.126,0,0,0,15.36,17.74Z" fill="#f05023"/>
        <path id="Path_5150" data-name="Path 5150" d="M11.1,21.15v4.39c0,.28-.11.4-.39.4H9.63a.34.34,0,0,1-.1-.01.318.318,0,0,1-.3-.32V16.78a.974.974,0,0,1,.02-.24.3.3,0,0,1,.22-.2.875.875,0,0,1,.16-.02h1.1a.336.336,0,0,1,.37.38v4.45Z" fill="#f05023"/>
        <path id="Path_5151" data-name="Path 5151" d="M37.9,29.69c-.32.01-.67.03-1.03.06-.34.03-.68.06-1.02.1l-.51.06a.45.45,0,0,1-.23-.01.188.188,0,0,1-.13-.24.538.538,0,0,1,.21-.28,4.86,4.86,0,0,1,.54-.33,6.762,6.762,0,0,1,2.01-.65,8.629,8.629,0,0,1,1.9-.11,5.917,5.917,0,0,1,1.45.22,1.359,1.359,0,0,1,.39.17.43.43,0,0,1,.18.24,1.456,1.456,0,0,1,.06.46,5.428,5.428,0,0,1-.15,1.33,8.889,8.889,0,0,1-.71,2.07,6.142,6.142,0,0,1-1.38,1.89,1.916,1.916,0,0,1-.22.18.4.4,0,0,1-.24.07.186.186,0,0,1-.2-.19.456.456,0,0,1,.05-.23q.33-.825.63-1.65a12.219,12.219,0,0,0,.44-1.54,2.891,2.891,0,0,0,.08-.83v-.07a.612.612,0,0,0-.42-.55,2.846,2.846,0,0,0-.76-.15C38.55,29.68,38.24,29.69,37.9,29.69Z" fill="#f05123"/>
        <path id="Path_5152" data-name="Path 5152" d="M11.34,13.49a1.084,1.084,0,0,1-.09.5,1,1,0,0,1-.64.58,1.4,1.4,0,0,1-.86,0,.974.974,0,0,1-.71-.74,1.329,1.329,0,0,1,.01-.74,1,1,0,0,1,.88-.73,1.618,1.618,0,0,1,.58.02,1.041,1.041,0,0,1,.83.94A.958.958,0,0,1,11.34,13.49Z" fill="#f05123"/>
      </g>
    </g>
  </g>
</svg>
