<svg xmlns="http://www.w3.org/2000/svg" xmlns:xlink="http://www.w3.org/1999/xlink" width="105" height="32" viewBox="0 0 105 32">
  <defs>
    <linearGradient id="linear-gradient" x1="2.472" y1="1.035" x2="2.361" y2="1.005" gradientUnits="objectBoundingBox">
      <stop offset="0" stop-color="#00a0ff"/>
      <stop offset="0.007" stop-color="#00a1ff"/>
      <stop offset="0.26" stop-color="#00beff"/>
      <stop offset="0.512" stop-color="#00d2ff"/>
      <stop offset="0.76" stop-color="#00dfff"/>
      <stop offset="1" stop-color="#00e3ff"/>
    </linearGradient>
    <linearGradient id="linear-gradient-2" x1="1.95" y1="1.879" x2="1.69" y2="1.879" gradientUnits="objectBoundingBox">
      <stop offset="0" stop-color="#ffe000"/>
      <stop offset="0.409" stop-color="#ffbd00"/>
      <stop offset="0.775" stop-color="orange"/>
      <stop offset="1" stop-color="#ff9c00"/>
    </linearGradient>
    <linearGradient id="linear-gradient-3" x1="1.926" y1="0.946" x2="1.835" y2="0.793" gradientUnits="objectBoundingBox">
      <stop offset="0" stop-color="#ff3a44"/>
      <stop offset="1" stop-color="#c31162"/>
    </linearGradient>
    <linearGradient id="linear-gradient-4" x1="1.856" y1="2.093" x2="1.897" y2="2.025" gradientUnits="objectBoundingBox">
      <stop offset="0" stop-color="#32a071"/>
      <stop offset="0.068" stop-color="#2da771"/>
      <stop offset="0.476" stop-color="#15cf74"/>
      <stop offset="0.801" stop-color="#06e775"/>
      <stop offset="1" stop-color="#00f076"/>
    </linearGradient>
    <clipPath id="clip-google-play">
      <rect width="105" height="32"/>
    </clipPath>
  </defs>
  <g id="google-play" clip-path="url(#clip-google-play)">
    <g id="Google_Play_Store_badge_EN" transform="translate(0.414 0.333)">
      <path id="Path_5103" data-name="Path 5103" d="M100.029,30.652H3.849A3.851,3.851,0,0,1,0,26.821V3.832A3.846,3.846,0,0,1,3.849,0h96.18a3.847,3.847,0,0,1,3.849,3.832V26.821A3.852,3.852,0,0,1,100.029,30.652Z" fill-rule="evenodd"/>
      <path id="Path_5104" data-name="Path 5104" d="M100.029.613a3.235,3.235,0,0,1,3.235,3.218V26.821a3.229,3.229,0,0,1-3.235,3.218H3.849A3.235,3.235,0,0,1,.613,26.821V3.832A3.229,3.229,0,0,1,3.849.613Zm0-.613H3.849A3.851,3.851,0,0,0,0,3.832V26.821a3.846,3.846,0,0,0,3.849,3.832h96.18a3.847,3.847,0,0,0,3.849-3.832V3.832A3.852,3.852,0,0,0,100.029,0Z" fill="#a6a6a6" fill-rule="evenodd"/>
      <path id="Path_5105" data-name="Path 5105" d="M1677.41,276.255a2.332,2.332,0,0,1-1.741-.72,2.454,2.454,0,0,1-.7-1.758,2.4,2.4,0,0,1,.7-1.756,2.325,2.325,0,0,1,1.739-.72,2.357,2.357,0,0,1,1.741.72,2.545,2.545,0,0,1,0,3.512A2.314,2.314,0,0,1,1677.41,276.255Zm-20.641,0a2.418,2.418,0,0,1-1.749-.711,2.477,2.477,0,0,1,1.749-4.242,2.437,2.437,0,0,1,.977.2,1.975,1.975,0,0,1,.743.531l.046.055-.518.508-.053-.063a1.472,1.472,0,0,0-1.2-.518,1.661,1.661,0,0,0-1.2.489,1.857,1.857,0,0,0,0,2.545,1.751,1.751,0,0,0,2.429,0,1.322,1.322,0,0,0,.352-.8h-1.661v-.715h2.374l.01.065a2.641,2.641,0,0,1,.034.359,2.151,2.151,0,0,1-.593,1.586A2.312,2.312,0,0,1,1656.769,276.255Zm27.444-.1h-.732l-2.242-3.587.019.646v2.939h-.732V271.4h.835l.023.036,2.108,3.379-.019-.644V271.4h.74Zm-12.3,0h-.741v-4.036h-1.286V271.4h3.312v.715h-1.286v4.036Zm-2.631,0h-.74V271.4h.74Zm-4.156,0h-.74v-4.036H1663.1V271.4h3.312v.715h-1.286Zm-2.494-.008h-2.836V271.4h2.836v.715h-2.094v1.3h1.89v.707h-1.89v1.3h2.094Zm13.583-1.1a1.636,1.636,0,0,0,1.2.5,1.6,1.6,0,0,0,1.2-.5,1.883,1.883,0,0,0,0-2.53,1.64,1.64,0,0,0-1.2-.5,1.588,1.588,0,0,0-1.2.5,1.886,1.886,0,0,0,0,2.53Z" transform="translate(-1622.686 -266.115)" fill="#fff"/>
      <path id="Path_5106" data-name="Path 5106" d="M1667.442,686.619a3.26,3.26,0,1,0,3.27,3.26A3.209,3.209,0,0,0,1667.442,686.619Zm0,5.229a1.981,1.981,0,1,1,1.838-1.976A1.887,1.887,0,0,1,1667.442,691.848Zm-7.134-5.229a3.26,3.26,0,1,0,3.27,3.26A3.209,3.209,0,0,0,1660.308,686.619Zm0,5.229a1.981,1.981,0,1,1,1.838-1.976A1.887,1.887,0,0,1,1660.308,691.848Zm-8.489-4.233v1.38h3.312a2.907,2.907,0,0,1-.749,1.737,3.379,3.379,0,0,1-2.555,1.013,3.679,3.679,0,0,1,0-7.357,3.536,3.536,0,0,1,2.494.988l.978-.978a4.812,4.812,0,0,0-3.465-1.4,5.059,5.059,0,1,0,0,10.117,4.63,4.63,0,0,0,3.533-1.422,4.579,4.579,0,0,0,1.2-3.235,4.263,4.263,0,0,0-.077-.86h-4.674S1651.82,687.615,1651.82,687.615Zm34.721,1.074a3.03,3.03,0,0,0-2.792-2.077,3.1,3.1,0,0,0-3.073,3.26,3.186,3.186,0,0,0,3.235,3.26,3.235,3.235,0,0,0,2.715-1.447l-1.106-.742a1.854,1.854,0,0,1-1.6.9,1.665,1.665,0,0,1-1.584-.988l4.359-1.806S1686.541,688.689,1686.541,688.689Zm-4.445,1.089a1.789,1.789,0,0,1,1.7-1.9,1.257,1.257,0,0,1,1.21.69Zm-3.541,3.159h1.431v-9.578h-1.431Zm-2.35-5.594h-.052a2.258,2.258,0,0,0-1.72-.732,3.26,3.26,0,0,0,0,6.515,2.252,2.252,0,0,0,1.72-.742h.052v.468c0,1.244-.665,1.915-1.737,1.915a1.807,1.807,0,0,1-1.644-1.158l-1.244.52a3.112,3.112,0,0,0,2.886,1.924c1.678,0,3.1-.988,3.1-3.4v-5.849h-1.353v.537Zm-1.644,4.5a1.982,1.982,0,0,1,0-3.95,1.833,1.833,0,0,1,1.737,1.984A1.81,1.81,0,0,1,1674.56,691.848Zm18.682-8.489h-3.422v9.578h1.431V689.31h1.993a2.98,2.98,0,1,0,0-5.951Zm.042,4.613h-2.035v-3.287h2.035a1.644,1.644,0,1,1,0,3.287Zm8.838-1.37a2.7,2.7,0,0,0-2.555,1.464l1.269.527a1.361,1.361,0,0,1,1.3-.707,1.382,1.382,0,0,1,1.508,1.234v.1a3.207,3.207,0,0,0-1.491-.367c-1.37,0-2.76.749-2.76,2.154a2.214,2.214,0,0,0,2.375,2.112,2.015,2.015,0,0,0,1.821-.936h.052v.741h1.38v-3.669A2.625,2.625,0,0,0,1702.123,686.6Zm-.18,5.246c-.468,0-1.124-.229-1.124-.818,0-.741.818-1.022,1.515-1.022a2.484,2.484,0,0,1,1.3.323A1.723,1.723,0,0,1,1701.943,691.848Zm8.116-5.041-1.644,4.154h-.052l-1.7-4.154h-1.54l2.555,5.807-1.456,3.228h1.491l3.931-9.035Zm-12.884,6.13h1.431v-9.578h-1.431Z" transform="translate(-1615.232 -669.948)" fill="#fff" fill-rule="evenodd"/>
      <path id="Path_5107" data-name="Path 5107" d="M400.45,299.452a1.552,1.552,0,0,0-.35,1.082v16.945a1.478,1.478,0,0,0,.357,1.072l.059.052,9.494-9.494V308.9l-9.5-9.5Z" transform="translate(-392.454 -293.678)" fill-rule="evenodd" fill="url(#linear-gradient)"/>
      <path id="Path_5108" data-name="Path 5108" d="M921.467,637.055l-3.167-3.167v-.222l3.167-3.167.069.042,3.746,2.129a1.163,1.163,0,0,1,0,2.213l-3.746,2.129Z" transform="translate(-900.751 -618.451)" fill-rule="evenodd" fill="url(#linear-gradient-2)"/>
      <path id="Path_5109" data-name="Path 5109" d="M431.188,805.235,427.953,802l-9.553,9.553a1.254,1.254,0,0,0,1.592.052l11.2-6.369" transform="translate(-410.404 -786.674)" fill-rule="evenodd" fill="url(#linear-gradient-3)"/>
      <path id="Path_5110" data-name="Path 5110" d="M431.188,293.1l-11.2-6.36a1.242,1.242,0,0,0-1.592.052l9.553,9.544Z" transform="translate(-410.404 -281.006)" fill-rule="evenodd" fill="url(#linear-gradient-4)"/>
      <path id="Path_5111" data-name="Path 5111" d="M431.512,967.7l-11.12,6.318a1.262,1.262,0,0,1-1.533.008l-.059.059.059.052a1.265,1.265,0,0,0,1.533-.008l11.2-6.36Z" transform="translate(-410.797 -949.207)" fill-rule="evenodd" opacity="0.2"/>
      <path id="Path_5112" data-name="Path 5112" d="M1087.324,803l-3.824,2.171.069.069,3.745-2.129a1.342,1.342,0,0,0,.8-1.106A1.378,1.378,0,0,1,1087.324,803Z" transform="translate(-1062.794 -786.674)" fill-rule="evenodd" opacity="0.12"/>
      <path id="Path_5113" data-name="Path 5113" d="M402.042,286.676l14.942,8.489a1.408,1.408,0,0,1,.8,1,1.342,1.342,0,0,0-.8-1.106l-14.942-8.489c-1.072-.613-1.942-.1-1.942,1.124v.111C400.1,286.573,400.97,286.071,402.042,286.676Z" transform="translate(-392.454 -280.835)" fill="#fff" fill-rule="evenodd" opacity="0.25"/>
    </g>
  </g>
</svg>
