<?xml version="1.0" encoding="utf-8"?>
<!-- Generator: Adobe Illustrator 25.0.1, SVG Export Plug-In . SVG Version: 6.00 Build 0)  -->
<svg version="1.1" id="Layer_1" xmlns="http://www.w3.org/2000/svg" xmlns:xlink="http://www.w3.org/1999/xlink" x="0px" y="0px"
	 viewBox="0 0 70 31" style="enable-background:new 0 0 70 31;" xml:space="preserve">
<style type="text/css">
	.st0{fill:none;}
	.st1{fill:#A50034;}
	.st2{fill:#FFFFFF;}
	.st3{fill:#6B6B6B;}
</style>
<rect class="st0" width="70" height="31"/>
<g id="lg">
	<g id="LG_logo__2015_" transform="translate(2 1)">
		<path id="Path_5208" class="st1" d="M14.57,29.11c8.04-0.01,14.55-6.53,14.55-14.57C29.11,6.51,22.59-0.01,14.55,0
			C6.51,0.01,0,6.52,0,14.56C0,22.6,6.53,29.12,14.57,29.11"/>
		<path id="Path_5209" class="st2" d="M13.99,8.17v12.77h4.06v-1.15h-2.89V8.17H13.99z"/>
		<path id="Path_5210" class="st2" d="M9.92,11.66c0.96,0,1.75-0.78,1.75-1.74c0-0.96-0.78-1.75-1.74-1.75
			c-0.96,0-1.75,0.78-1.75,1.74c0,0,0,0,0,0C8.17,10.87,8.95,11.65,9.92,11.66"/>
		<path id="Path_5211" class="st2" d="M15.15,2.38C15,2.37,14.71,2.36,14.57,2.36c-6.73,0-12.19,5.46-12.19,12.19
			c0,6.73,5.46,12.19,12.19,12.19c6.73,0,12.19-5.45,12.19-12.19v-0.54h-8.71v1.12h7.55c0,0.02,0,0.14,0,0.17
			C25.18,21.4,19.91,26,13.82,25.59c-2.66-0.18-5.17-1.32-7.06-3.21C2.43,18.06,2.43,11.07,6.73,6.75c2.08-2.08,4.9-3.25,7.84-3.25
			c0.13,0,0.44,0,0.58,0.01L15.15,2.38z"/>
		<path id="Path_5212" class="st3" d="M40.09,4.9h-4.38v18.95h13.45v-3.69h-9.07V4.9z M58.79,16.63h3.57v3.31
			c-1.02,0.33-2.09,0.5-3.16,0.5c-3.94,0-5.25-2-5.25-6.07c0-3.88,1.25-6.16,5.19-6.16c1.73-0.15,3.42,0.61,4.47,2l2.72-2.5
			c-1.66-2.38-4.57-3.09-7.29-3.09c-6.13,0-9.35,3.35-9.35,9.73c0,6.35,2.91,9.79,9.32,9.79c2.58,0.08,5.14-0.56,7.38-1.84v-9.2
			h-7.6L58.79,16.63z"/>
	</g>
</g>
</svg>
