
<svg xmlns="http://www.w3.org/2000/svg" xmlns:xlink="http://www.w3.org/1999/xlink" width="82" height="26" viewBox="0 0 82 26">
  <defs>
    <clipPath id="clip-roku">
      <rect width="82" height="26"/>
    </clipPath>
  </defs>
  <g id="roku" clip-path="url(#clip-roku)">
    <g id="Group_2521" data-name="Group 2521" transform="translate(-10878 -2211)">
      <path id="path3023" d="M-144.515-93.673a4.158,4.158,0,0,0-4.137-4.176H-150.7v8.315h2.051a4.151,4.151,0,0,0,4.137-4.139m9.332,16.577h-7.53l-5.979-8.3H-150.7v8.279h-6.637v-24.872h9.507c5.481,0,9.955,3.727,9.955,8.313A8.079,8.079,0,0,1-142.2-86.85l7.02,9.754" transform="translate(11035.405 2313.704)" fill="#6c3c97"/>
      <path id="path3027" d="M-114.707-54.222c-1.753,0-3.243,2.382-3.243,5.331s1.491,5.334,3.243,5.334c1.793,0,3.282-2.385,3.282-5.334s-1.488-5.331-3.282-5.331m10.215,5.331a10.166,10.166,0,0,1-10.215,10.145,10.136,10.136,0,0,1-10.179-10.145,10.137,10.137,0,0,1,10.179-10.143,10.167,10.167,0,0,1,10.215,10.143" transform="translate(11022.414 2275.747)" fill="#6c3c97"/>
      <path id="path3031" d="M-160.918-.285l-7.645,7.644V-.31H-175.2V19.181h6.635V11.275l7.981,7.906h8.352L-162.373,9.037l8.4-8.4V12.206c0,3.84,2.31,7.384,8.126,7.384a9.221,9.221,0,0,0,6.526-2.983l2.983,2.573h1.416V-.285h-6.635v12.6a3.717,3.717,0,0,1-3.4,2.124c-1.632,0-2.382-.968-2.382-4.063V-.285Z" transform="translate(11094.415 2217.409)" fill="#6c3c97"/>
    </g>
  </g>
</svg>
