<?xml version="1.0" encoding="utf-8"?>
<!-- Generator: Adobe Illustrator 25.0.1, SVG Export Plug-In . SVG Version: 6.00 Build 0)  -->
<svg version="1.1" id="Layer_1" xmlns="http://www.w3.org/2000/svg" xmlns:xlink="http://www.w3.org/1999/xlink" x="0px" y="0px"
	 viewBox="0 0 93 31" style="enable-background:new 0 0 93 31;" xml:space="preserve">
<style type="text/css">
	.st0{fill:none;}
	.st1{fill:#FFFFFF;}
	.st2{fill:#0751A0;}
	.st3{fill:#9EA742;}
	.st4{fill:#FEDA00;}
	.st5{fill:#ECC0BF;}
	.st6{fill:#D4D127;}
	.st7{fill:#14B1E7;}
	.st8{fill:#F4E782;}
	.st9{fill:#ADE1FA;}
	.st10{fill:#F68B21;}
	.st11{fill:#EF498B;}
	.st12{fill:#DCDDDE;}
</style>
<rect class="st0" width="93" height="31"/>
<g id="samsung">
	<g id="Layer_2_1_" transform="translate(-0.22 -15.15)">
		<g id="Group_2554" transform="translate(1.22 16.15)">
			<g id="Group_2552" transform="translate(0.976)">
				<path id="Path_5213" class="st1" d="M4.92,3.13C4.33,2.95,3.93,2.4,3.96,1.78V1.63c0-0.92,0.56-1.44,1.68-1.44H6.2
					c0.88,0,1.4,0.37,1.4,1.22c0.01,0.2-0.13,0.37-0.33,0.38c-0.02,0-0.05,0-0.07,0C6.99,1.81,6.8,1.66,6.78,1.45
					c0-0.01,0-0.02,0-0.04c0-0.33-0.26-0.49-0.62-0.49H5.6c-0.62,0-0.86,0.22-0.86,0.71v0.15c-0.01,0.3,0.19,0.56,0.47,0.64
					l1.55,0.53C7.39,3.1,7.81,3.69,7.77,4.33v0.31c0.04,0.81-0.59,1.5-1.4,1.54c-0.1,0-0.19,0-0.28-0.01h-0.8
					c-0.88,0-1.4-0.37-1.4-1.22c-0.01-0.2,0.13-0.37,0.33-0.38c0.02,0,0.05,0,0.07,0c0.2-0.02,0.38,0.13,0.4,0.33
					c0,0.02,0,0.04,0,0.05c0,0.37,0.26,0.49,0.62,0.49h0.82C6.71,5.44,7,5.13,7,4.66V4.35c0.02-0.29-0.16-0.56-0.44-0.66L4.92,3.13z
					"/>
				<path id="Path_5214" class="st1" d="M10.66,1.76c0.69-0.08,1.32,0.42,1.39,1.12c0.01,0.05,0.01,0.11,0.01,0.16v2.63
					c0.01,0.2-0.13,0.37-0.33,0.38c-0.02,0-0.05,0-0.07,0h-1.6c-0.78,0-1.31-0.37-1.31-1.11V4.29c0-0.75,0.53-1.11,1.31-1.11h1.22
					V3.01c0-0.42-0.26-0.58-0.62-0.58H9.53c-0.19,0.02-0.36-0.11-0.38-0.3c0-0.01,0-0.02,0-0.03C9.14,1.91,9.29,1.75,9.48,1.74
					c0.02,0,0.04,0,0.05,0h1.13V1.76z M11.28,5.37V3.91h-1.22c-0.35,0-0.53,0.16-0.53,0.42v0.6c0,0.26,0.18,0.42,0.53,0.42h1.22
					L11.28,5.37z"/>
				<path id="Path_5215" class="st1" d="M17.52,3.25c0.05-0.39-0.23-0.75-0.62-0.8c-0.07-0.01-0.13-0.01-0.2,0H16.2v3.3
					c0,0.21-0.17,0.38-0.38,0.38s-0.38-0.17-0.38-0.38v-3.3h-1.31v3.3c0,0.21-0.17,0.38-0.38,0.38c-0.21,0-0.38-0.17-0.38-0.38V2.16
					c-0.02-0.19,0.11-0.36,0.3-0.38c0.03,0,0.05,0,0.08,0h3.01c0.77-0.11,1.48,0.42,1.59,1.19c0.01,0.1,0.02,0.2,0.01,0.31v2.5
					c0,0.21-0.17,0.38-0.38,0.38c-0.21,0-0.38-0.17-0.38-0.38v-2.5h-0.07V3.25z"/>
				<path id="Path_5216" class="st1" d="M20.71,6.13c-0.78,0-1.29-0.31-1.29-1.01c-0.03-0.18,0.1-0.36,0.29-0.38
					c0.03,0,0.06,0,0.1,0c0.29,0,0.35,0.16,0.38,0.38c0,0.2,0.2,0.33,0.49,0.33h0.71c0.4,0,0.56-0.2,0.56-0.44v-0.3
					c0-0.2-0.11-0.31-0.33-0.37l-1.38-0.37c-0.49-0.09-0.82-0.53-0.78-1.02v-0.2c0-0.75,0.44-1.11,1.31-1.11h0.49
					c0.78,0,1.29,0.31,1.29,1.01c0,0.21-0.17,0.38-0.38,0.38s-0.38-0.17-0.38-0.38c0-0.2-0.18-0.33-0.49-0.33H20.8
					c-0.44,0-0.56,0.2-0.56,0.44v0.2c0.01,0.19,0.14,0.34,0.33,0.37l1.35,0.37c0.49,0.09,0.82,0.53,0.78,1.02v0.31
					c0,0.75-0.47,1.11-1.31,1.11L20.71,6.13z"/>
				<path id="Path_5217" class="st1" d="M24.57,4.53c-0.05,0.39,0.23,0.75,0.62,0.8c0.07,0.01,0.13,0.01,0.2,0h1.06v-3.3
					c-0.02-0.19,0.11-0.36,0.3-0.38c0.03,0,0.05,0,0.08,0c0.19-0.02,0.37,0.13,0.38,0.32c0,0.02,0,0.04,0,0.06v3.63
					c0.02,0.19-0.13,0.37-0.32,0.38c-0.02,0-0.04,0-0.06,0h-1.44c-0.77,0.11-1.48-0.42-1.59-1.19c-0.01-0.1-0.02-0.2-0.01-0.31v-2.5
					c0-0.21,0.17-0.38,0.38-0.38s0.38,0.17,0.38,0.38v2.46h0.02V4.53z"/>
				<path id="Path_5218" class="st1" d="M31.21,3.25c0.05-0.39-0.23-0.75-0.62-0.8c-0.07-0.01-0.13-0.01-0.2,0h-1.05v3.3
					c0.02,0.19-0.11,0.36-0.3,0.38c-0.03,0-0.05,0-0.08,0C28.75,6.15,28.58,6,28.56,5.81c0-0.02,0-0.04,0-0.06V2.16
					c-0.02-0.19,0.11-0.36,0.3-0.38c0.03,0,0.05,0,0.08,0h1.44c0.77-0.11,1.48,0.42,1.59,1.19c0.01,0.1,0.02,0.2,0.01,0.31v2.5
					c0,0.21-0.17,0.38-0.38,0.38c-0.21,0-0.38-0.17-0.38-0.38v-2.5h-0.02L31.21,3.25z"/>
				<path id="Path_5219" class="st1" d="M36.58,6.5c0.05,0.83-0.58,1.55-1.41,1.61c-0.08,0-0.15,0-0.23,0h-0.97
					C33.79,8.13,33.62,8,33.6,7.81c0-0.02,0-0.05,0-0.07c-0.01-0.19,0.14-0.36,0.33-0.37c0.02,0,0.04,0,0.05,0h0.97
					c0.44,0.03,0.83-0.29,0.86-0.74c0-0.06,0-0.12-0.01-0.18V6.04h-1.06c-0.77,0.11-1.48-0.42-1.59-1.19
					c-0.01-0.1-0.02-0.2-0.01-0.31V3.38c-0.06-0.82,0.55-1.54,1.37-1.61c0.09-0.01,0.18-0.01,0.27,0h1.4
					c0.2-0.02,0.38,0.13,0.4,0.33c0,0.02,0,0.04,0,0.05L36.58,6.5L36.58,6.5z M34.74,2.45c-0.45-0.03-0.83,0.31-0.86,0.75
					c0,0.05,0,0.11,0.01,0.16v1.17c-0.05,0.39,0.23,0.75,0.62,0.8c0.07,0.01,0.13,0.01,0.2,0h1.06V2.45H34.74z"/>
			</g>
			<g id="Group_2553" transform="translate(0 9.837)">
				<path id="Path_5220" class="st2" d="M27.57,6.28v6.85l-5.41-3.84L27.57,6.28z"/>
				<path id="Path_5221" class="st3" d="M16.78,6.28v6.85l5.41-3.84L16.78,6.28z"/>
				<path id="Path_5222" class="st4" d="M22.19-0.64l-7.02,3.94l7.02-0.02V-0.64z"/>
				<path id="Path_5223" class="st5" d="M22.19-0.64l6.98,3.94l-6.98-0.02V-0.64z"/>
				<path id="Path_5224" class="st6" d="M22.19,9.29l-6.98,4.91h6.98V9.29z"/>
				<path id="Path_5225" class="st7" d="M22.19,9.29l6.98,4.91h-6.98V9.29z"/>
				<path id="Path_5226" class="st8" d="M15.21,14.2h6.97v4.78L15.21,14.2z"/>
				<path id="Path_5227" class="st9" d="M29.16,14.2h-6.96v4.78L29.16,14.2z"/>
				<path id="Path_5228" class="st10" d="M15.21,3.28h7v3.88L15.21,3.28z"/>
				<path id="Path_5229" class="st11" d="M29.21,3.28h-7.02v3.88L29.21,3.28z"/>
				<path id="Path_5230" class="st1" d="M29.17,14.21V3.28l-6.98,3.88l-6.98-3.88v10.94l1.57,1.06V6.28l5.41,2.99l5.4-2.99v8.99
					L29.17,14.21z"/>
				<path id="Path_5231" class="st1" d="M49.77,10.24C51.12,9.74,52.01,8.44,52,7c0-0.5-0.1-1-0.27-1.48
					c-0.2-0.44-0.48-0.84-0.82-1.17c-0.39-0.33-0.84-0.58-1.33-0.75C49,3.43,48.41,3.34,47.82,3.35H43.3v11.99h1.59V4.88h2.93
					c0.69-0.04,1.38,0.14,1.95,0.53c0.45,0.38,0.69,0.96,0.64,1.55c0.05,0.58-0.19,1.16-0.64,1.53c-0.57,0.4-1.26,0.58-1.95,0.53
					h-1.95v1.51h2.33l2.24,4.78h1.73L49.77,10.24z"/>
				<path id="Path_5232" class="st1" d="M53.35,3.4v1.53h3.61v10.44h1.57V4.94h3.63V3.4H53.35z"/>
				<path id="Path_5233" class="st1" d="M36.76,3.4h-1.33l-4.59,11.98h1.68l1.44-3.74l4.36,0.02l1.44,3.72h1.66L36.76,3.4z
					 M34.48,10.2l1.6-4.27l1.66,4.27H34.48z"/>
				<path id="Path_5234" class="st1" d="M12.83,10.73c-0.16-0.39-0.39-0.75-0.67-1.06c-0.31-0.3-0.66-0.55-1.04-0.75
					c-0.42-0.19-0.87-0.33-1.33-0.4L7.63,8.25C7.4,8.22,7.17,8.17,6.95,8.09C6.76,8.03,6.59,7.93,6.44,7.8
					C6.3,7.67,6.18,7.51,6.1,7.34C5.92,6.86,5.93,6.33,6.13,5.86c0.12-0.22,0.28-0.42,0.47-0.58c0.24-0.21,0.52-0.36,0.82-0.44
					c0.35-0.1,0.71-0.15,1.08-0.15c0.44,0,0.88,0.08,1.29,0.22c0.34,0.13,0.64,0.34,0.88,0.62c0.15,0.16,0.27,0.36,0.35,0.56
					c0.09,0.22,0.15,0.44,0.18,0.67l0.04,0.31h1.58l-0.04-0.4c-0.03-0.42-0.13-0.82-0.31-1.2c-0.18-0.34-0.39-0.67-0.64-0.97
					c-0.4-0.45-0.91-0.79-1.47-0.98c-0.6-0.25-1.25-0.37-1.9-0.37C7.9,3.17,7.34,3.27,6.81,3.44C5.88,3.73,5.09,4.37,4.62,5.23
					C4.4,5.66,4.28,6.14,4.29,6.63C4.29,7.07,4.37,7.5,4.55,7.91C4.71,8.26,4.93,8.59,5.2,8.87c0.29,0.27,0.62,0.49,0.98,0.64
					c0.39,0.16,0.8,0.26,1.22,0.31l2.11,0.27c0.28,0.04,0.55,0.11,0.8,0.22c0.22,0.11,0.42,0.25,0.6,0.42
					c0.16,0.15,0.28,0.33,0.37,0.53c0.09,0.19,0.13,0.41,0.13,0.62c0.01,0.27-0.04,0.54-0.15,0.78c-0.1,0.21-0.25,0.4-0.42,0.56
					c-0.28,0.26-0.62,0.45-0.98,0.56c-0.43,0.13-0.88,0.19-1.33,0.18c-0.42-0.01-0.84-0.07-1.24-0.2c-0.37-0.12-0.7-0.33-0.97-0.6
					c-0.19-0.2-0.35-0.43-0.47-0.67c-0.12-0.26-0.21-0.54-0.26-0.82l-0.04-0.33H3.96L4,11.77c0.04,0.47,0.16,0.93,0.37,1.35
					c0.19,0.41,0.45,0.79,0.77,1.11c0.42,0.45,0.95,0.79,1.53,0.98c0.62,0.22,1.27,0.33,1.93,0.33c0.66,0,1.32-0.1,1.95-0.29
					c0.58-0.18,1.11-0.5,1.55-0.92c0.3-0.3,0.55-0.64,0.73-1.02c0.2-0.44,0.3-0.92,0.29-1.4C13.08,11.51,12.99,11.11,12.83,10.73"/>
				<path id="Path_5235" class="st1" d="M77.68,15.42h1.06l4.63-12.07h-1.2L78.21,13.7L74.18,3.35h-8.8v1.11h3.77v10.96h1.17V4.46
					h3.12L77.68,15.42z"/>
				<path id="Path_5236" class="st12" d="M27.57,6.28v9l1.6-1.08V3.28L22.19,7.2v2.08L27.57,6.28z"/>
				<path id="Path_5237" class="st1" d="M83.75,3.66V3.4h1.33v0.26h-0.49v1.28h-0.31V3.66H83.75z M85.79,3.4l0.4,1.09l0.4-1.09h0.44
					v1.55h-0.27V3.72l-0.44,1.24h-0.26l-0.44-1.24v1.24h-0.29V3.4L85.79,3.4z"/>
			</g>
		</g>
	</g>
</g>
</svg>
