<svg width="29" height="29" viewBox="0 0 29 29" xmlns="http://www.w3.org/2000/svg">
    <g fill="none" fill-rule="evenodd">
        <circle stroke="#303035" stroke-width=".99" fill="#1D1D1F" cx="14.5" cy="14.5" r="14.005"/>
        <path d="M19.073 13.573h-3.646V9.927A.935.935 0 0 0 14.5 9a.935.935 0 0 0-.927.927v3.646H9.927A.935.935 0 0 0 9 14.5c0 .253.105.485.274.653.169.169.4.274.653.274h3.646v3.646c0 .253.105.484.274.653.168.169.4.274.653.274a.935.935 0 0 0 .927-.927v-3.646h3.646A.935.935 0 0 0 20 14.5c0-.506-.4-.927-.927-.927z" stroke="#211D1E" stroke-width=".2" fill="#FFF" fill-rule="nonzero"/>
    </g>
</svg>
