<svg width="24" height="25" viewBox="0 0 24 25" fill="none" xmlns="http://www.w3.org/2000/svg">
<path d="M3 9.32532C3 8.26445 3.42143 7.24704 4.17157 6.49689C4.92172 5.74674 5.93913 5.32532 7 5.32532H17C18.0609 5.32532 19.0783 5.74674 19.8284 6.49689C20.5786 7.24704 21 8.26445 21 9.32532V15.3253C21 16.3862 20.5786 17.4036 19.8284 18.1537C19.0783 18.9039 18.0609 19.3253 17 19.3253H7C5.93913 19.3253 4.92172 18.9039 4.17157 18.1537C3.42143 17.4036 3 16.3862 3 15.3253V9.32532Z" stroke="#fff" stroke-width="2" stroke-linecap="round" stroke-linejoin="round"/>
<path d="M10 9.32532L15 12.3253L10 15.3253V9.32532Z" stroke="#fff" stroke-width="2" stroke-linecap="round" stroke-linejoin="round"/>
</svg>
