<svg width="24" height="25" viewBox="0 0 24 25" fill="none" xmlns="http://www.w3.org/2000/svg">
<path d="M8 11.3253V16.3253M8 8.32532V8.33532M12 16.3253V11.3253M16 16.3253V13.3253C16 12.7949 15.7893 12.2862 15.4142 11.9111C15.0391 11.536 14.5304 11.3253 14 11.3253C13.4696 11.3253 12.9609 11.536 12.5858 11.9111C12.2107 12.2862 12 12.7949 12 13.3253M4 6.32532C4 5.79488 4.21071 5.28618 4.58579 4.9111C4.96086 4.53603 5.46957 4.32532 6 4.32532H18C18.5304 4.32532 19.0391 4.53603 19.4142 4.9111C19.7893 5.28618 20 5.79488 20 6.32532V18.3253C20 18.8558 19.7893 19.3645 19.4142 19.7395C19.0391 20.1146 18.5304 20.3253 18 20.3253H6C5.46957 20.3253 4.96086 20.1146 4.58579 19.7395C4.21071 19.3645 4 18.8558 4 18.3253V6.32532Z" stroke="#fff" stroke-width="2" stroke-linecap="round" stroke-linejoin="round"/>
</svg>
