<svg width="24" height="25" viewBox="0 0 24 25" fill="none" xmlns="http://www.w3.org/2000/svg">
<path d="M16.5 7.82532V7.83532M4 8.32532C4 7.26445 4.42143 6.24704 5.17157 5.49689C5.92172 4.74674 6.93913 4.32532 8 4.32532H16C17.0609 4.32532 18.0783 4.74674 18.8284 5.49689C19.5786 6.24704 20 7.26445 20 8.32532V16.3253C20 17.3862 19.5786 18.4036 18.8284 19.1537C18.0783 19.9039 17.0609 20.3253 16 20.3253H8C6.93913 20.3253 5.92172 19.9039 5.17157 19.1537C4.42143 18.4036 4 17.3862 4 16.3253V8.32532ZM9 12.3253C9 13.121 9.31607 13.884 9.87868 14.4466C10.4413 15.0092 11.2044 15.3253 12 15.3253C12.7956 15.3253 13.5587 15.0092 14.1213 14.4466C14.6839 13.884 15 13.121 15 12.3253C15 11.5297 14.6839 10.7666 14.1213 10.204C13.5587 9.64139 12.7956 9.32532 12 9.32532C11.2044 9.32532 10.4413 9.64139 9.87868 10.204C9.31607 10.7666 9 11.5297 9 12.3253Z" stroke="#fff" stroke-width="2" stroke-linecap="round" stroke-linejoin="round"/>
</svg>
