<svg width="24" height="25" viewBox="0 0 24 25" fill="none" xmlns="http://www.w3.org/2000/svg">
<path d="M16 3.3252L12 7.3252L8 3.3252M3 9.3252C3 8.79476 3.21071 8.28605 3.58579 7.91098C3.96086 7.53591 4.46957 7.3252 5 7.3252H19C19.5304 7.3252 20.0391 7.53591 20.4142 7.91098C20.7893 8.28605 21 8.79476 21 9.3252V18.3252C21 18.8556 20.7893 19.3643 20.4142 19.7394C20.0391 20.1145 19.5304 20.3252 19 20.3252H5C4.46957 20.3252 3.96086 20.1145 3.58579 19.7394C3.21071 19.3643 3 18.8556 3 18.3252V9.3252Z" stroke="#ffff" stroke-width="1" stroke-linecap="round" stroke-linejoin="round"/>
</svg>
