<svg width="24" height="25" viewBox="0 0 24 25" fill="none" xmlns="http://www.w3.org/2000/svg">
<path d="M9 21.3253V15.3253C9 14.7949 9.21071 14.2862 9.58579 13.9111C9.96086 13.536 10.4696 13.3253 11 13.3253H13C13.5304 13.3253 14.0391 13.536 14.4142 13.9111C14.7893 14.2862 15 14.7949 15 15.3253V21.3253M5 12.3253H3L12 3.32532L21 12.3253H19V19.3253C19 19.8558 18.7893 20.3645 18.4142 20.7395C18.0391 21.1146 17.5304 21.3253 17 21.3253H7C6.46957 21.3253 5.96086 21.1146 5.58579 20.7395C5.21071 20.3645 5 19.8558 5 19.3253V12.3253Z" stroke="#ffff" stroke-width="1" stroke-linecap="round" stroke-linejoin="round"/>
</svg>
