<svg width="24" height="25" viewBox="0 0 24 25" fill="none" xmlns="http://www.w3.org/2000/svg">
<path d="M14 8.32532V6.32532C14 5.79488 13.7893 5.28618 13.4142 4.9111C13.0391 4.53603 12.5304 4.32532 12 4.32532H5C4.46957 4.32532 3.96086 4.53603 3.58579 4.9111C3.21071 5.28618 3 5.79488 3 6.32532V18.3253C3 18.8558 3.21071 19.3645 3.58579 19.7395C3.96086 20.1146 4.46957 20.3253 5 20.3253H12C12.5304 20.3253 13.0391 20.1146 13.4142 19.7395C13.7893 19.3645 14 18.8558 14 18.3253V16.3253M7 12.3253H21M21 12.3253L18 9.32532M21 12.3253L18 15.3253" stroke="#e41b2c" stroke-width="1" stroke-linecap="round" stroke-linejoin="round"/>
</svg>
