<svg width="24" height="25" viewBox="0 0 24 25" fill="none" xmlns="http://www.w3.org/2000/svg">
<path d="M6.168 19.1742C6.41551 18.3504 6.92197 17.6284 7.61225 17.1152C8.30252 16.602 9.13985 16.3249 10 16.3252H14C14.8613 16.3249 15.6996 16.6026 16.3904 17.117C17.0812 17.6314 17.5875 18.355 17.834 19.1802M3 12.3252C3 13.5071 3.23279 14.6774 3.68508 15.7693C4.13738 16.8613 4.80031 17.8534 5.63604 18.6892C6.47177 19.5249 7.46392 20.1878 8.55585 20.6401C9.64778 21.0924 10.8181 21.3252 12 21.3252C13.1819 21.3252 14.3522 21.0924 15.4442 20.6401C16.5361 20.1878 17.5282 19.5249 18.364 18.6892C19.1997 17.8534 19.8626 16.8613 20.3149 15.7693C20.7672 14.6774 21 13.5071 21 12.3252C21 11.1433 20.7672 9.97297 20.3149 8.88104C19.8626 7.78911 19.1997 6.79696 18.364 5.96123C17.5282 5.12551 16.5361 4.46257 15.4442 4.01028C14.3522 3.55799 13.1819 3.3252 12 3.3252C10.8181 3.3252 9.64778 3.55799 8.55585 4.01028C7.46392 4.46257 6.47177 5.12551 5.63604 5.96123C4.80031 6.79696 4.13738 7.78911 3.68508 8.88104C3.23279 9.97297 3 11.1433 3 12.3252ZM9 10.3252C9 11.1208 9.31607 11.8839 9.87868 12.4465C10.4413 13.0091 11.2044 13.3252 12 13.3252C12.7956 13.3252 13.5587 13.0091 14.1213 12.4465C14.6839 11.8839 15 11.1208 15 10.3252C15 9.52955 14.6839 8.76648 14.1213 8.20388C13.5587 7.64127 12.7956 7.3252 12 7.3252C11.2044 7.3252 10.4413 7.64127 9.87868 8.20388C9.31607 8.76648 9 9.52955 9 10.3252Z" stroke="#ffff" stroke-width="2" stroke-linecap="round" stroke-linejoin="round"/>
</svg>
